<svg xmlns="http://www.w3.org/2000/svg" viewBox="0 0 1000 100" width="1000" height="100"><g fill="none" stroke-width="16" stroke-linecap="butt" stroke-linejoin="miter"><g transform="translate(0 0)"><line x1="14" y1="90" x2="50" y2="10" stroke="#B72F26"/><line x1="50" y1="90" x2="86" y2="10" stroke="#252A60"/></g><g transform="translate(100 0)"><polyline points="42,10 16,50 42,90" stroke="#F68722"/><polyline points="58,10 84,50 58,90" stroke="#B72F26"/></g><g transform="translate(200 0)"><circle cx="50" cy="50" r="31" stroke="#F68722"/></g><g transform="translate(300 0)"><polyline points="18,10 44,50 18,90" stroke="#252A60"/><polyline points="52,10 78,50 52,90" stroke="#B72F26"/></g><g transform="translate(400 0)"><polyline points="12,18 50,44 88,18" stroke="#F68722"/><polyline points="12,56 50,82 88,56" stroke="#252A60"/></g><g transform="translate(500 0)"><line x1="14" y1="90" x2="50" y2="10" stroke="#252A60"/><line x1="50" y1="90" x2="86" y2="10" stroke="#B72F26"/></g><g transform="translate(600 0)"><polyline points="42,10 16,50 42,90" stroke="#B72F26"/><polyline points="58,10 84,50 58,90" stroke="#F68722"/></g><g transform="translate(700 0)"><circle cx="50" cy="50" r="31" stroke="#B72F26"/></g><g transform="translate(800 0)"><polyline points="18,10 44,50 18,90" stroke="#F68722"/><polyline points="52,10 78,50 52,90" stroke="#252A60"/></g><g transform="translate(900 0)"><polyline points="12,18 50,44 88,18" stroke="#B72F26"/><polyline points="12,56 50,82 88,56" stroke="#F68722"/></g></g></svg>